<svg height="24" width="24" viewBox="0 0 510 510" xmlns="http://www.w3.org/2000/svg" xmlns:xlink="http://www.w3.org/1999/xlink" version="1.1"  style="enable-background:new 0 0 510 510;" xml:space="preserve"><g id="_x30_2_x2C__bone_x2C__bones_x2C__healthcare_and_medical_x2C__repair_x2C__broken_x2C__heal"><g><g><polygon style="fill:#A2CAFC;" points="388.04,296.11 416.32,324.4 388.04,352.68 359.75,324.4 366.82,306.5    "/><polygon style="fill:#A2CAFC;" points="324.4,359.75 352.68,388.04 324.4,416.32 296.11,388.04 298.5,366.82    "/><polygon style="fill:#A2CAFC;" points="289.04,338.54 279.75,359.75 260.76,366.82 232.54,338.6 239.55,319 260.82,310.32    "/><polygon style="fill:#A2CAFC;" points="338.6,232.54 366.82,260.76 357,281 338.54,289.04 310.32,260.82 316.166,242    "/><polygon style="fill:#A2CAFC;" points="150.18,185.54 140.333,206 121.9,213.82 93.62,185.54 121.9,157.26    "/><polygon style="fill:#A2CAFC;" points="213.82,121.9 207,142 185.54,150.18 157.26,121.9 185.54,93.62    "/><polygon style="fill:#A2CAFC;" points="199.68,249.18 189.5,268.167 171.4,277.46 143.11,249.18 151.5,229.667 171.4,220.9         "/><polygon style="fill:#A2CAFC;" points="249.18,143.11 277.46,171.4 270.39,192 249.18,199.68 220.9,171.4 226,150.18    "/><path style="fill:#89B0E8;" d="M270.39,121.9l-21.21,21.21c-0.12,0.12-105.949,105.949-106.07,106.07l-21.21,21.21l-28.28-28.28     L242.11,93.62L270.39,121.9z"/><path style="fill:#89B0E8;" d="M416.32,267.83c-21.861,21.861-130.275,130.275-148.49,148.49l-28.28-28.28     c45.164-45.151,50.7-50.69,148.49-148.49L416.32,267.83z"/><path style="fill:#E0F1F5;" d="M485.84,103.8c19.95,21.66,18.64,55.82-2.81,75.98c-24.2,22.74-63.43,18.52-82.06-9.61     l-62.37,62.37l-0.06-0.07l-28.28,28.29l0.06,0.06l-49.5,49.5l-0.06-0.06l-28.29,28.28l0.07,0.06l-62.37,62.37     c28.13,18.63,32.35,57.86,9.61,82.06c-20.17,21.45-54.33,22.76-75.98,2.81c-19.7-18.15-22.74-47.18-9.11-68.68     c0.14-0.22,0.21-0.48,0.21-0.73c0-1.05-1.166-1.694-2.06-1.12c-21.51,13.63-50.53,10.59-68.68-9.11     c-19.95-21.66-18.64-55.82,2.81-75.98c24.2-22.74,63.43-18.52,82.06,9.61c26.497-26.497,201.622-201.622,230.8-230.8     c-28.13-18.63-32.35-57.87-9.61-82.06c20.17-21.45,54.33-22.76,75.98-2.81c19.7,18.15,22.74,47.18,9.11,68.68     c-0.14,0.22-0.21,0.48-0.21,0.73c0,1.05,1.166,1.694,2.06,1.12C438.67,81.06,467.69,84.1,485.84,103.8z"/><g><path d="M493.199,97.025c-15.866-17.226-39.26-24.033-61.02-19.204c4.827-21.761-1.979-45.152-19.202-61.018      c-25.688-23.665-66.082-22.176-90.04,3.317c-23.974,25.508-22.872,65.458,1.983,89.679l-47.457,47.457l-14.142-14.142      l14.142-14.142c3.904-3.905,3.903-10.239,0-14.143L249.18,86.545c-3.906-3.905-10.236-3.905-14.143,0l-21.213,21.213      l-21.213-21.213c-3.906-3.905-10.236-3.905-14.143,0l-28.284,28.284c-3.905,3.905-3.905,10.237,0,14.143l21.213,21.213      l-21.213,21.213l-21.213-21.213c-3.906-3.905-10.238-3.903-14.143,0L86.545,178.47c-3.905,3.905-3.905,10.237,0,14.142      l21.213,21.213l-21.213,21.213c-3.905,3.905-3.905,10.237,0,14.142l28.284,28.285c3.906,3.904,10.238,3.903,14.143,0      l14.143-14.143l14.142,14.142L109.8,324.92c-24.235-24.869-64.184-25.937-89.674-1.987      c-25.497,23.958-26.988,64.351-3.325,90.041c15.864,17.225,39.258,24.033,61.02,19.206c-4.824,21.76,1.98,45.153,19.202,61.018      c25.783,23.751,66.17,22.078,90.04-3.317c23.974-25.509,22.872-65.458-1.983-89.68l47.456-47.456l14.081,14.081l-14.142,14.142      c-3.905,3.905-3.905,10.237,0,14.143l28.284,28.284c3.906,3.904,10.235,3.905,14.143,0l21.213-21.213l21.213,21.213      c3.906,3.904,10.235,3.905,14.143,0l28.284-28.284c3.905-3.905,3.905-10.237,0-14.143l-21.213-21.213l21.213-21.213      l21.213,21.213c3.906,3.904,10.235,3.905,14.143,0l28.284-28.284c3.905-3.905,3.905-10.237,0-14.143l-21.213-21.213      l21.213-21.213c3.905-3.905,3.905-10.237,0-14.143l-28.284-28.284c-3.906-3.905-10.238-3.903-14.143,0l-14.142,14.142      l-14.081-14.081L400.2,185.08c24.235,24.871,64.184,25.937,89.674,1.988C515.371,163.11,516.863,122.717,493.199,97.025z       M185.54,107.759l14.142,14.142l-14.142,14.142l-14.142-14.142L185.54,107.759z M263.322,171.398      c-1.314,1.314-12.844,12.843-14.142,14.142l-14.142-14.141l14.143-14.143L263.322,171.398z M107.758,185.541l14.143-14.143      l14.142,14.142L121.9,199.683L107.758,185.541z M121.9,256.251l-14.143-14.142c13.668-13.667,121.989-121.988,134.352-134.35      l14.142,14.142C240.868,137.284,138.933,239.219,121.9,256.251z M171.398,235.038l14.141,14.142l-14.142,14.142l-14.142-14.142      L171.398,235.038z M185.541,220.896l35.354-35.354l14.142,14.142l-35.354,35.354L185.541,220.896z M310.317,274.962      l14.081,14.081l-35.355,35.355l-14.081-14.081L310.317,274.962z M246.677,338.602l14.143-14.143l14.081,14.081l-14.142,14.142      L246.677,338.602z M338.54,388.038l-14.142,14.142l-14.142-14.142l14.142-14.142L338.54,388.038z M402.18,324.398      l-14.142,14.142l-14.142-14.142l14.142-14.142L402.18,324.398z M388.038,253.688l14.143,14.143      c-69.622,69.621-62.026,62.025-134.351,134.35l-14.142-14.142C286.635,355.092,355.485,286.24,388.038,253.688z       M352.682,260.759l-14.142,14.142L324.46,260.82l14.143-14.143L352.682,260.759z M476.179,172.492      c-19.744,18.551-51.714,15.038-66.874-7.845c-3.501-5.285-10.956-6-15.408-1.548      c-57.039,56.973-135.233,135.033-230.798,230.798c-4.484,4.484-3.702,11.928,1.549,15.408      c22.903,15.172,26.381,47.151,7.841,66.878c-16.482,17.537-44.257,18.57-61.915,2.304c-15.699-14.461-18.827-38-7.439-55.968      c2.869-4.522,2.232-10.322-1.549-14.104c-3.757-3.755-9.548-4.438-14.101-1.551c-17.972,11.39-41.512,8.261-55.973-7.439      c-16.267-17.66-15.23-45.437,2.31-61.917c19.743-18.551,51.713-15.04,66.874,7.845c3.497,5.279,10.955,6.004,15.408,1.549      c25.037-25.037,208.972-208.972,230.798-230.798c4.474-4.474,3.712-11.923-1.549-15.408      c-22.903-15.174-26.381-47.152-7.841-66.878c16.482-17.538,44.257-18.569,61.915-2.304c15.699,14.461,18.827,38,7.438,55.971      c-2.866,4.522-2.229,10.32,1.547,14.096c3.78,3.784,9.581,4.424,14.104,1.555c17.971-11.391,41.511-8.263,55.973,7.439      C494.755,128.236,493.719,156.011,476.179,172.492z"/></g></g></g></g><g id="Layer_1"/></svg>