<svg id="Report" style="enable-background:new 0 0 32 32;" version="1.1" height="24" width="24" viewBox="0 0 32 32" xml:space="preserve" xmlns="http://www.w3.org/2000/svg" xmlns:xlink="http://www.w3.org/1999/xlink"><style type="text/css">
	.st0{fill:#E4EDF2;}
	.st1{fill:#F4D0B5;}
	.st2{fill:#8B9CA5;}
	.st3{fill:#16F293;}
</style><g><path class="st0" d="M23.5,4.281h-0.789c0.101,0.315,0.17,0.643,0.17,0.991c0,1.822-1.468,3.29-3.271,3.29H12.39   c-1.804,0-3.271-1.468-3.271-3.271c0-0.355,0.07-0.69,0.173-1.009H8.5c-1.654,0-3,1.346-3,3V27c0,1.654,1.346,3,3,3h15   c1.654,0,3-1.346,3-3V7.281C26.5,5.626,25.154,4.281,23.5,4.281z M11.2,23.548c0-0.553,0.442-1,0.995-1h0.01c0.552,0,1,0.447,1,1   s-0.448,1-1,1S11.2,24.101,11.2,23.548z M16.565,10.688h4.75c0.553,0,1,0.448,1,1s-0.447,1-1,1h-4.75c-0.552,0-1-0.448-1-1   S16.013,10.688,16.565,10.688z M16.565,16.618h4.75c0.553,0,1,0.447,1,1s-0.447,1-1,1h-4.75c-0.552,0-1-0.447-1-1   S16.013,16.618,16.565,16.618z M16.565,22.548h4.75c0.553,0,1,0.447,1,1s-0.447,1-1,1h-4.75c-0.552,0-1-0.447-1-1   S16.013,22.548,16.565,22.548z M9.978,10.85c0.391-0.391,1.023-0.391,1.414,0l0.381,0.381l1.205-1.205   c0.391-0.391,1.023-0.391,1.414,0s0.391,1.023,0,1.414l-1.912,1.912c-0.195,0.195-0.451,0.293-0.707,0.293   s-0.512-0.098-0.707-0.293l-1.088-1.088C9.587,11.873,9.587,11.24,9.978,10.85z M9.978,16.779c0.391-0.391,1.023-0.391,1.414,0   l0.381,0.381l1.205-1.205c0.391-0.391,1.023-0.391,1.414,0s0.391,1.023,0,1.414l-1.912,1.912c-0.195,0.195-0.451,0.293-0.707,0.293   s-0.512-0.098-0.707-0.293l-1.088-1.088C9.587,17.803,9.587,17.17,9.978,16.779z"/><path class="st1" d="M9.119,5.29c0,1.804,1.467,3.271,3.271,3.271h7.219c1.804,0,3.271-1.468,3.271-3.29   c0-0.348-0.069-0.676-0.17-0.991C22.288,2.963,21.066,2,19.609,2H12.39c-1.453,0-2.672,0.958-3.098,2.281   C9.189,4.6,9.119,4.935,9.119,5.29z"/><path class="st2" d="M16.565,18.618h4.75c0.553,0,1-0.447,1-1s-0.447-1-1-1h-4.75c-0.552,0-1,0.447-1,1   S16.013,18.618,16.565,18.618z"/><path class="st2" d="M16.565,24.548h4.75c0.553,0,1-0.447,1-1s-0.447-1-1-1h-4.75c-0.552,0-1,0.447-1,1   S16.013,24.548,16.565,24.548z"/><path class="st2" d="M16.565,12.688h4.75c0.553,0,1-0.448,1-1s-0.447-1-1-1h-4.75c-0.552,0-1,0.448-1,1   S16.013,12.688,16.565,12.688z"/><path class="st3" d="M11.065,13.352c0.195,0.195,0.451,0.293,0.707,0.293s0.512-0.098,0.707-0.293l1.912-1.912   c0.391-0.391,0.391-1.023,0-1.414s-1.023-0.391-1.414,0l-1.205,1.205l-0.381-0.381c-0.391-0.391-1.023-0.391-1.414,0   s-0.391,1.023,0,1.414L11.065,13.352z"/><path class="st3" d="M11.065,19.281c0.195,0.195,0.451,0.293,0.707,0.293s0.512-0.098,0.707-0.293l1.912-1.912   c0.391-0.391,0.391-1.023,0-1.414s-1.023-0.391-1.414,0l-1.205,1.205l-0.381-0.381c-0.391-0.391-1.023-0.391-1.414,0   s-0.391,1.023,0,1.414L11.065,19.281z"/><path class="st2" d="M13.205,23.548c0-0.553-0.448-1-1-1h-0.01c-0.552,0-0.995,0.447-0.995,1s0.453,1,1.005,1   S13.205,24.101,13.205,23.548z"/></g></svg>