<svg  style="enable-background:new 0 0 512 512;" version="1.1" height="1" width="1" viewBox="0 0 512 512"  xml:space="preserve" xmlns="http://www.w3.org/2000/svg" xmlns:xlink="http://www.w3.org/1999/xlink"><g id="_x35_39_x2C__eye_x2C__eyes_x2C__education_x2C__light"><g><path d="M379.33,190.46c-37.2-20.16-79.061-31.49-123.33-31.49c-0.31,0-0.609,0-0.92,0.011    c-44.939,0.149-87.39,11.979-124.96,32.869c23.3-45.31,70.521-76.3,124.97-76.3C308.99,115.55,355.78,145.91,379.33,190.46z" style="fill:#415A6B;"/><path d="M258.916,129.505c46.357,0,87.441,22.47,113.018,57.098c2.484,1.248,4.951,2.532,7.396,3.857    c-23.55-44.55-70.34-74.91-124.24-74.91c-54.449,0-101.67,30.99-124.97,76.3c6.25-3.475,12.638-6.692,19.146-9.654    C175.004,150.075,214.56,129.505,258.916,129.505z" style="fill:#415A6B;"/><path d="M256,351.141c44.81,0,87.15-11.601,124.68-32.21c-23.08,45.97-70.64,77.52-125.59,77.52    c-55.489,0-103.47-32.189-126.279-78.92c37.199,20.95,79.229,33,123.77,33.58c0.021,0,0.04,0,0.05,0    c0.82,0.02,1.641,0.03,2.46,0.03c0.131,0,0.261,0,0.391,0C255.65,351.141,255.83,351.141,256,351.141z" style="fill:#415A6B;"/><path d="M256.387,364.824c0.021,0,0.04,0,0.05,0c0.82,0.02,1.64,0.03,2.46,0.03c0.131,0,0.26,0,0.391,0    c0.17,0,0.35,0,0.52,0c37.715,0,73.681-8.22,106.501-23.11c5.48-7.101,10.313-14.728,14.372-22.813    c-37.529,20.609-79.87,32.21-124.68,32.21c-0.17,0-0.35,0-0.52,0c-0.13,0-0.26,0-0.391,0c-0.819,0-1.64-0.011-2.46-0.03    c-0.01,0-0.029,0-0.05,0c-44.54-0.58-86.57-12.63-123.77-33.58c2.886,5.912,6.178,11.59,9.834,17.001    C174.333,353.448,214.234,364.275,256.387,364.824z" style="fill:#364E5B;"/><path d="M350.24,256c0-52.55-42.601-95.14-95.15-95.14l-0.01-1.88c0.311-0.011,0.61-0.011,0.92-0.011    c44.27,0,86.13,11.33,123.33,31.49c29.97,16.23,56.91,38.2,79.64,64.601c-22.39,26-48.859,47.7-78.29,63.87    c-37.529,20.609-79.87,32.21-124.68,32.21c-0.17,0-0.35,0-0.52,0C307.85,350.931,350.24,308.42,350.24,256z" style="fill:#FFC592;"/><path d="M379.33,190.46c-37.2-20.16-79.061-31.49-123.33-31.49c-0.31,0-0.609,0-0.92,0.011l0.01,1.88    c23.755,0,45.476,8.704,62.148,23.097c24.827,5.227,48.488,14.066,70.516,26.003c24.409,13.219,46.807,30.246,66.559,50.373    c1.57-1.739,3.125-3.493,4.657-5.272C436.24,228.66,409.3,206.69,379.33,190.46z" style="fill:#EFA873;"/><path d="M255.09,160.86c-52.54,0-95.14,42.59-95.14,95.14c0,51.71,41.25,93.78,92.63,95.11    c-44.54-0.58-86.57-12.63-123.77-33.58c-28.42-16.01-54.03-37.21-75.78-62.47c22.08-25.65,48.14-47.12,77.09-63.211    c37.57-20.89,80.021-32.72,124.96-32.869L255.09,160.86z" style="fill:#FFC592;"/><g><g><g><path d="M160.851,269.09c-0.002,0.259-0.01,0.517-0.01,0.775c0,30.063,13.945,56.864,35.715,74.299       c18.085,4.309,36.82,6.696,56.024,6.946C205.614,349.895,167.119,314.635,160.851,269.09z" style="fill:#EFA873;"/></g><g><path d="M131.011,205.715c21.074-11.717,43.684-20.582,67.406-26.137       c15.83-11.759,35.439-18.718,56.673-18.718l-0.01-1.88c-44.939,0.149-87.39,11.979-124.96,32.869       c-28.95,16.091-55.01,37.561-77.09,63.211c2.167,2.517,4.383,4.981,6.626,7.417C80.47,239.67,104.525,220.436,131.011,205.715z       " style="fill:#EFA873;"/></g></g></g><path d="M255.09,160.86c52.55,0,95.15,42.59,95.15,95.14c0,52.42-42.391,94.931-94.76,95.141    c-0.95,0-1.9-0.011-2.851-0.03c-0.01,0-0.029,0-0.05,0c-51.38-1.33-92.63-43.4-92.63-95.11    C159.95,203.45,202.55,160.86,255.09,160.86z M300.41,239.75c0-12.25-9.94-22.189-22.22-22.189    c-11.091,0-16.641,5.55-22.19,16.649c-5.55-11.1-11.1-16.649-22.189-16.649c-12.25,0-22.19,9.939-22.19,22.189    c0,22.2,22.19,34.83,44.38,57.03C278.19,274.58,300.41,261.95,300.41,239.75z" style="fill:#924B35;"/><g><path d="M165.865,268.91c0-52.551,42.6-95.141,95.139-95.141c35.899,0,67.15,19.879,83.354,49.228     c-13.42-36.278-48.322-62.137-89.268-62.137c-52.54,0-95.14,42.59-95.14,95.14c0,16.658,4.286,32.313,11.808,45.931     C167.951,291.644,165.865,280.521,165.865,268.91z" style="fill:#7F3C2A;"/></g><path d="M278.19,217.561c12.279,0,22.22,9.939,22.22,22.189c0,22.2-22.22,34.83-44.41,57.03    c-22.189-22.2-44.38-34.83-44.38-57.03c0-12.25,9.94-22.189,22.19-22.189c11.09,0,16.64,5.55,22.189,16.649    C261.55,223.11,267.1,217.561,278.19,217.561z" style="fill:#EF3E5C;"/><g><g><g><path d="M224.85,247.346c0-12.25,9.94-22.189,22.19-22.189c1.252,0,2.425,0.081,3.544,0.223       c-4.179-5.211-9.176-7.818-16.773-7.818c-12.25,0-22.19,9.939-22.19,22.189c0,22.2,22.19,34.83,44.38,57.03       c0.852-0.852,1.702-1.685,2.552-2.509C240.44,277.84,224.85,265.953,224.85,247.346z" style="fill:#E42A53;"/></g></g></g><path d="M256.01,87.45c-2.761,0-5-2.239-5-5V61.18c0-2.761,2.239-5,5-5c2.762,0,5,2.239,5,5V82.45    C261.01,85.211,258.771,87.45,256.01,87.45z" style="fill:#415A6B;"/><path d="M370.449,123.212c-2.123,0-4.093-1.363-4.767-3.495c-0.832-2.633,0.628-5.442,3.261-6.274    l34.149-10.79c2.636-0.83,5.442,0.628,6.274,3.262c0.832,2.633-0.628,5.441-3.261,6.273l-34.149,10.79    C371.455,123.136,370.948,123.212,370.449,123.212z" style="fill:#415A6B;"/><path d="M141.582,123.212c-0.499,0-1.007-0.075-1.508-0.234l-34.16-10.79    c-2.633-0.831-4.094-3.64-3.262-6.273c0.831-2.634,3.64-4.095,6.273-3.262l34.16,10.79c2.634,0.832,4.094,3.641,3.262,6.273    C145.675,121.849,143.705,123.212,141.582,123.212z" style="fill:#415A6B;"/><path d="M318.641,99.78c-1.342,0-2.681-0.537-3.666-1.599c-1.878-2.024-1.76-5.188,0.264-7.066l11.95-11.09    c2.023-1.877,5.187-1.762,7.066,0.264c1.878,2.024,1.76,5.188-0.264,7.066l-11.95,11.09    C321.078,99.338,319.858,99.78,318.641,99.78z" style="fill:#415A6B;"/><path d="M192.819,99.78c-1.217,0-2.437-0.441-3.398-1.334l-11.96-11.09    c-2.025-1.878-2.145-5.041-0.268-7.065c1.879-2.025,5.043-2.144,7.066-0.268l11.96,11.09c2.024,1.878,2.145,5.042,0.267,7.066    C195.501,99.242,194.162,99.78,192.819,99.78z" style="fill:#415A6B;"/><path d="M256.01,455.82c-2.761,0-5-2.238-5-5v-21.27c0-2.762,2.239-5,5-5c2.762,0,5,2.238,5,5v21.27    C261.01,453.582,258.771,455.82,256.01,455.82z" style="fill:#415A6B;"/><path d="M404.601,409.581c-0.499,0-1.006-0.075-1.508-0.233l-34.149-10.79    c-2.633-0.832-4.093-3.641-3.261-6.274c0.832-2.633,3.638-4.094,6.274-3.261l34.149,10.79c2.633,0.832,4.093,3.641,3.261,6.274    C408.693,408.219,406.724,409.581,404.601,409.581z" style="fill:#415A6B;"/><path d="M107.419,409.581c-2.123,0-4.093-1.362-4.767-3.495c-0.832-2.633,0.629-5.442,3.262-6.273    l34.16-10.79c2.632-0.833,5.442,0.627,6.273,3.262c0.832,2.633-0.628,5.442-3.262,6.273l-34.16,10.79    C108.425,409.506,107.918,409.581,107.419,409.581z" style="fill:#415A6B;"/><path d="M330.589,433.311c-1.218,0-2.439-0.442-3.402-1.337l-11.95-11.101    c-2.022-1.879-2.14-5.043-0.26-7.066c1.878-2.021,5.044-2.139,7.066-0.26l11.95,11.101c2.022,1.879,2.14,5.043,0.26,7.066    C333.269,432.773,331.931,433.311,330.589,433.311z" style="fill:#415A6B;"/><path d="M180.861,433.311c-1.343,0-2.681-0.537-3.666-1.599c-1.879-2.024-1.761-5.188,0.264-7.066    l11.96-11.101c2.023-1.879,5.188-1.761,7.065,0.264c1.879,2.024,1.761,5.188-0.263,7.066l-11.96,11.101    C183.299,432.869,182.078,433.311,180.861,433.311z" style="fill:#415A6B;"/></g></g><g id="Layer_1"/></svg>