<svg height="24" width="24" id="Icons"  viewBox="0 0 60 60" xmlns="http://www.w3.org/2000/svg"><defs><style>.cls-1{fill:#f8536c;}.cls-2{fill:#ffc388;}.cls-3{fill:#fccb55;}.cls-4{fill:#373737;}</style></defs><path class="cls-1" d="M23,30.671V47.132a10.986,10.986,0,0,1-9.51,10.891l-6.81.93A5,5,0,0,1,1,54V42.592a30.875,30.875,0,0,1,16.08-27.1A4.006,4.006,0,0,1,23,19.01V30.671Z"/><path class="cls-1" d="M37,30.671V47.132a10.986,10.986,0,0,0,9.51,10.891l6.81.93A5,5,0,0,0,59,54V42.592a30.875,30.875,0,0,0-16.08-27.1A4.006,4.006,0,0,0,37,19.01V30.671Z"/><path class="cls-2" d="M21.29,32l6.927-5.388a2.9,2.9,0,0,1,3.566,0L38.71,32,39,27l-5.254-4.5A5,5,0,0,1,32,18.7V2a1,1,0,0,0-1-1H29a1,1,0,0,0-1,1V18.7a5,5,0,0,1-1.746,3.8L21,27Z"/><circle class="cls-3" cx="16" cy="36" r="2"/><circle class="cls-3" cx="12" cy="43" r="2"/><circle class="cls-3" cx="44" cy="36" r="2"/><circle class="cls-3" cx="48" cy="43" r="2"/><path class="cls-4" d="M43.4,14.611a5.007,5.007,0,0,0-7.4,4.4v4.1l-1.6-1.374A4,4,0,0,1,33,18.7V2a2,2,0,0,0-2-2H29a2,2,0,0,0-2,2V18.7a4,4,0,0,1-1.4,3.037L24,23.112v-4.1a5.007,5.007,0,0,0-7.4-4.4A31.862,31.862,0,0,0,0,42.592V54a5.995,5.995,0,0,0,6,6,6.184,6.184,0,0,0,.814-.055l6.811-.929A12.034,12.034,0,0,0,24,47.132V31.158L28.832,27.4a1.9,1.9,0,0,1,2.336,0L36,31.158V47.132A12.034,12.034,0,0,0,46.374,59.015l6.812.929A6,6,0,0,0,60,54V42.592A31.863,31.863,0,0,0,43.4,14.611ZM58,54a3.995,3.995,0,0,1-4.544,3.959l-6.811-.93A10.026,10.026,0,0,1,38,47.132V32.714l.1.075A.989.989,0,0,0,38.71,33a1,1,0,0,0,.615-1.789L32.4,25.822a3.9,3.9,0,0,0-4.792,0l-6.929,5.389A1,1,0,0,0,21.9,32.789l.1-.075V47.132a10.026,10.026,0,0,1-8.646,9.9l-6.809.93A4,4,0,0,1,2,54V42.592A29.86,29.86,0,0,1,17.558,16.369,3.006,3.006,0,0,1,22,19.011v5.815L20.35,26.24a1,1,0,1,0,1.3,1.52L23.7,26.005l.012-.011L26.9,23.256A5.992,5.992,0,0,0,29,18.7V2h2V18.7a6,6,0,0,0,2.1,4.557L36.29,26,36.3,26l2.05,1.757a1,1,0,1,0,1.3-1.52L38,24.826V19.011a3.006,3.006,0,0,1,4.44-2.643A29.86,29.86,0,0,1,58,42.592Z"/><path class="cls-4" d="M16,33a3,3,0,1,0,3,3A3,3,0,0,0,16,33Zm0,4a1,1,0,1,1,1-1A1,1,0,0,1,16,37Z"/><path class="cls-4" d="M9,43a3,3,0,1,0,3-3A3,3,0,0,0,9,43Zm3-1a1,1,0,1,1-1,1A1,1,0,0,1,12,42Z"/><path class="cls-4" d="M47,36a3,3,0,1,0-3,3A3,3,0,0,0,47,36Zm-4,0a1,1,0,1,1,1,1A1,1,0,0,1,43,36Z"/><path class="cls-4" d="M45,43a3,3,0,1,0,3-3A3,3,0,0,0,45,43Zm3-1a1,1,0,1,1-1,1A1,1,0,0,1,48,42Z"/><path class="cls-4" d="M7.255,33.167a6.913,6.913,0,0,1,1.6-.161,13.1,13.1,0,0,0-.783,1.623,1,1,0,0,0,.558,1.3A.986.986,0,0,0,9,36a1,1,0,0,0,.929-.629,10.559,10.559,0,0,1,1.431-2.535l0-.006a8.152,8.152,0,0,1,3.745-2.819,4.956,4.956,0,0,1,2.12.824,1,1,0,0,0,1.1-1.67,7.386,7.386,0,0,0-2.032-.944,4.129,4.129,0,0,1,1.237-1.376,1,1,0,0,0-1.064-1.693,5.869,5.869,0,0,0-2.327,3.084,10.36,10.36,0,0,0-3.976,2.9,8.608,8.608,0,0,0-3.425.1,1,1,0,0,0,.513,1.933Z"/><path class="cls-4" d="M16.037,50.234a8.587,8.587,0,0,0-3.425-.1,10.366,10.366,0,0,0-3.975-2.9A5.874,5.874,0,0,0,6.31,44.152a1,1,0,0,0-1.066,1.693,4.107,4.107,0,0,1,1.238,1.376,7.386,7.386,0,0,0-2.032.944,1,1,0,1,0,1.1,1.67,4.943,4.943,0,0,1,2.118-.824,8.15,8.15,0,0,1,3.748,2.82l0,0a10.621,10.621,0,0,1,1.432,2.536,1,1,0,0,0,.928.629.986.986,0,0,0,.371-.071,1,1,0,0,0,.558-1.3,13.1,13.1,0,0,0-.783-1.623,6.887,6.887,0,0,1,1.6.16,1,1,0,1,0,.516-1.932Z"/><path class="cls-4" d="M45.857,28.236a5.869,5.869,0,0,0-2.327-3.084,1,1,0,0,0-1.065,1.693A4.109,4.109,0,0,1,43.7,28.221a7.4,7.4,0,0,0-2.031.944,1,1,0,1,0,1.1,1.67,4.943,4.943,0,0,1,2.118-.824,8.144,8.144,0,0,1,3.747,2.82l0,0a10.586,10.586,0,0,1,1.431,2.536A1,1,0,0,0,51,36a.986.986,0,0,0,.371-.071,1,1,0,0,0,.558-1.3,13.186,13.186,0,0,0-.783-1.624,6.8,6.8,0,0,1,1.6.161,1,1,0,1,0,.516-1.932,8.592,8.592,0,0,0-3.425-.1A10.36,10.36,0,0,0,45.857,28.236Z"/><path class="cls-4" d="M55.55,48.165a7.386,7.386,0,0,0-2.032-.944,4.129,4.129,0,0,1,1.237-1.376,1,1,0,0,0-1.065-1.693,5.874,5.874,0,0,0-2.327,3.084,10.353,10.353,0,0,0-3.975,2.9,8.593,8.593,0,0,0-3.425.1,1,1,0,0,0,.513,1.933,6.839,6.839,0,0,1,1.6-.161,13.1,13.1,0,0,0-.783,1.623,1,1,0,0,0,.558,1.3.986.986,0,0,0,.371.071,1,1,0,0,0,.928-.629,10.627,10.627,0,0,1,1.431-2.535l.005-.006a8.147,8.147,0,0,1,3.745-2.819,4.956,4.956,0,0,1,2.12.824,1,1,0,0,0,1.1-1.67Z"/><path class="cls-4" d="M4.738,40.946A.924.924,0,0,0,5,40.981a1.024,1.024,0,0,0,.968-.718.446.446,0,0,1,.291-.3,1,1,0,1,0-.512-1.934,2.457,2.457,0,0,0-1.716,1.731A.984.984,0,0,0,4.738,40.946Z"/><path class="cls-4" d="M53.033,38.744a1,1,0,0,0,.711,1.223.442.442,0,0,1,.29.292A1,1,0,0,0,55,41a1.016,1.016,0,0,0,.237-.028,1,1,0,0,0,.736-1.208,2.457,2.457,0,0,0-1.716-1.731A1,1,0,0,0,53.033,38.744Z"/></svg>