
<svg width="64" height="64" viewBox="0 0 64 64" fill="none" xmlns="http://www.w3.org/2000/svg">
  <path d="M32 2C20 2 10 12 10 24C10 42 20 62 32 62C44 62 54 42 54 24C54 12 44 2 32 2Z" fill="#fff" stroke="#333" stroke-width="2"/>
  <path d="M22 24C22 19 26 15 32 15C38 15 42 19 42 24" stroke="#555" stroke-width="2"/>
  <path d="M26 44C26 42 27 40 30 40C33 40 34 42 34 44" stroke="#555" stroke-width="2"/>
  <path d="M38 44C38 42 39 40 42 40C45 40 46 42 46 44" stroke="#555" stroke-width="2"/>
</svg>
