<svg style="enable-background:new 0 0 24 24;" version="1.1" height="24" width="24" viewBox="0 0 24 24" xml:space="preserve" xmlns="http://www.w3.org/2000/svg" xmlns:xlink="http://www.w3.org/1999/xlink"><style type="text/css">
	.st0{display:none;}
	.st1{display:inline;}
	.st2{opacity:0.2;fill:none;stroke:#000000;stroke-width:5.000000e-02;stroke-miterlimit:10;}
</style><g class="st0" id="grid_system"/><g id="_icons"><path d="M12,9h-1V8c0-0.6-0.4-1-1-1S9,7.4,9,8v1H8c-0.6,0-1,0.4-1,1s0.4,1,1,1h1v1c0,0.6,0.4,1,1,1s1-0.4,1-1v-1h1c0.6,0,1-0.4,1-1   S12.6,9,12,9z"/><path d="M16.3,14.9c1-1.4,1.7-3,1.7-4.9c0-4.4-3.6-8-8-8s-8,3.6-8,8s3.6,8,8,8c1.9,0,3.6-0.6,4.9-1.7l4.4,4.4   c0.2,0.2,0.5,0.3,0.7,0.3s0.5-0.1,0.7-0.3c0.4-0.4,0.4-1,0-1.4L16.3,14.9z M10,16c-3.3,0-6-2.7-6-6s2.7-6,6-6s6,2.7,6,6   S13.3,16,10,16z"/></g></svg>